<?xml version="1.0" encoding="UTF-8" standalone="no"?>
<!-- Created with Inkscape (http://www.inkscape.org/) -->

<svg
   xmlns:dc="http://purl.org/dc/elements/1.1/"
   xmlns:cc="http://creativecommons.org/ns#"
   xmlns:rdf="http://www.w3.org/1999/02/22-rdf-syntax-ns#"
   xmlns:svg="http://www.w3.org/2000/svg"
   xmlns="http://www.w3.org/2000/svg"
   xmlns:xlink="http://www.w3.org/1999/xlink"
   xmlns:sodipodi="http://sodipodi.sourceforge.net/DTD/sodipodi-0.dtd"
   xmlns:inkscape="http://www.inkscape.org/namespaces/inkscape"
   width="48px"
   height="48px"
   id="svg3885"
   version="1.1"
   inkscape:version="0.92.5 (2060ec1f9f, 2020-04-08)"
   sodipodi:docname="mesh_tri_edit.svg"
   inkscape:export-filename="/home/rod/juan/hpc/final_graphs/windows/gui/dir_file.png"
   inkscape:export-xdpi="90"
   inkscape:export-ydpi="90">
  <defs
     id="defs3887">
    <linearGradient
       inkscape:collect="always"
       id="linearGradient3810">
      <stop
         style="stop-color:#0000ff;stop-opacity:1;"
         offset="0"
         id="stop3812" />
      <stop
         style="stop-color:#0000ff;stop-opacity:0;"
         offset="1"
         id="stop3814" />
    </linearGradient>
    <linearGradient
       inkscape:collect="always"
       xlink:href="#linearGradient3810"
       id="linearGradient3816"
       x1="20.597935"
       y1="21.365049"
       x2="20.261415"
       y2="-5.0789695"
       gradientUnits="userSpaceOnUse" />
    <linearGradient
       inkscape:collect="always"
       xlink:href="#linearGradient3810-1"
       id="linearGradient3816-7"
       x1="20.597935"
       y1="21.365049"
       x2="20.261415"
       y2="-5.0789695"
       gradientUnits="userSpaceOnUse" />
    <linearGradient
       inkscape:collect="always"
       id="linearGradient3810-1">
      <stop
         style="stop-color:#0000ff;stop-opacity:1;"
         offset="0"
         id="stop3812-5" />
      <stop
         style="stop-color:#0000ff;stop-opacity:0;"
         offset="1"
         id="stop3814-7" />
    </linearGradient>
    <linearGradient
       gradientTransform="matrix(1,0,0,-1,-0.0954654,41.679978)"
       y2="-5.0789695"
       x2="20.261415"
       y1="21.365049"
       x1="20.597935"
       gradientUnits="userSpaceOnUse"
       id="linearGradient3833"
       xlink:href="#linearGradient3810-1"
       inkscape:collect="always" />
    <linearGradient
       inkscape:collect="always"
       xlink:href="#linearGradient3810"
       id="linearGradient3943"
       gradientUnits="userSpaceOnUse"
       x1="20.597935"
       y1="21.365049"
       x2="20.261415"
       y2="-5.0789695" />
    <linearGradient
       inkscape:collect="always"
       xlink:href="#linearGradient3810-1"
       id="linearGradient3945"
       gradientUnits="userSpaceOnUse"
       gradientTransform="matrix(1,0,0,-1,-0.0954654,41.679978)"
       x1="20.597935"
       y1="21.365049"
       x2="20.261415"
       y2="-5.0789695" />
    <linearGradient
       inkscape:collect="always"
       xlink:href="#linearGradient3810"
       id="linearGradient3951"
       gradientUnits="userSpaceOnUse"
       x1="20.597935"
       y1="21.365049"
       x2="20.261415"
       y2="-5.0789695" />
    <linearGradient
       inkscape:collect="always"
       xlink:href="#linearGradient3810-1"
       id="linearGradient3953"
       gradientUnits="userSpaceOnUse"
       gradientTransform="matrix(1,0,0,-1,-0.0954654,41.679978)"
       x1="20.597935"
       y1="21.365049"
       x2="20.261415"
       y2="-5.0789695" />
    <linearGradient
       inkscape:collect="always"
       xlink:href="#linearGradient3810"
       id="linearGradient3974"
       gradientUnits="userSpaceOnUse"
       x1="20.597935"
       y1="21.365049"
       x2="20.261415"
       y2="-5.0789695" />
    <linearGradient
       inkscape:collect="always"
       xlink:href="#linearGradient3810-1"
       id="linearGradient3976"
       gradientUnits="userSpaceOnUse"
       gradientTransform="matrix(1,0,0,-1,-0.0954654,41.679978)"
       x1="20.597935"
       y1="21.365049"
       x2="20.261415"
       y2="-5.0789695" />
    <linearGradient
       inkscape:collect="always"
       xlink:href="#linearGradient3810-1"
       id="linearGradient3885"
       gradientUnits="userSpaceOnUse"
       gradientTransform="matrix(1,0,0,-1,4.4555696,43.73321)"
       x1="20.597935"
       y1="21.365049"
       x2="20.261415"
       y2="-5.0789695" />
    <linearGradient
       inkscape:collect="always"
       xlink:href="#linearGradient3810"
       id="linearGradient3888"
       gradientUnits="userSpaceOnUse"
       x1="20.597935"
       y1="21.365049"
       x2="20.755163"
       y2="-1.1289923"
       gradientTransform="translate(4.5510351,2.2726755)" />
    <linearGradient
       inkscape:collect="always"
       xlink:href="#linearGradient3810-5"
       id="linearGradient3888-9"
       gradientUnits="userSpaceOnUse"
       x1="20.597935"
       y1="21.365049"
       x2="20.755163"
       y2="-1.1289923"
       gradientTransform="translate(4.5510351,2.2726755)" />
    <linearGradient
       inkscape:collect="always"
       id="linearGradient3810-5">
      <stop
         style="stop-color:#0000ff;stop-opacity:1;"
         offset="0"
         id="stop3812-0" />
      <stop
         style="stop-color:#0000ff;stop-opacity:0;"
         offset="1"
         id="stop3814-6" />
    </linearGradient>
    <linearGradient
       y2="-1.1289923"
       x2="20.755163"
       y1="21.365049"
       x1="20.597935"
       gradientTransform="matrix(1,0,0,-1,4.5817321,43.461785)"
       gradientUnits="userSpaceOnUse"
       id="linearGradient3960"
       xlink:href="#linearGradient3810-5"
       inkscape:collect="always" />
    <linearGradient
       y2="-1.1289923"
       x2="20.755163"
       y1="21.365049"
       x1="20.597935"
       gradientTransform="matrix(1,0,0,-1,4.5817321,43.461785)"
       gradientUnits="userSpaceOnUse"
       id="linearGradient3960-6"
       xlink:href="#linearGradient3810-5-3"
       inkscape:collect="always" />
    <linearGradient
       inkscape:collect="always"
       id="linearGradient3810-5-3">
      <stop
         style="stop-color:#0000ff;stop-opacity:1;"
         offset="0"
         id="stop3812-0-5" />
      <stop
         style="stop-color:#0000ff;stop-opacity:0;"
         offset="1"
         id="stop3814-6-9" />
    </linearGradient>
  </defs>
  <sodipodi:namedview
     id="base"
     pagecolor="#ffffff"
     bordercolor="#666666"
     borderopacity="1.0"
     inkscape:pageopacity="0.0"
     inkscape:pageshadow="2"
     inkscape:zoom="2.8284271"
     inkscape:cx="-23.970779"
     inkscape:cy="30.831555"
     inkscape:current-layer="layer1"
     showgrid="true"
     inkscape:grid-bbox="true"
     inkscape:document-units="px"
     inkscape:window-width="1920"
     inkscape:window-height="980"
     inkscape:window-x="1920"
     inkscape:window-y="27"
     inkscape:window-maximized="1"
     showguides="false" />
  <metadata
     id="metadata3890">
    <rdf:RDF>
      <cc:Work
         rdf:about="">
        <dc:format>image/svg+xml</dc:format>
        <dc:type
           rdf:resource="http://purl.org/dc/dcmitype/StillImage" />
        <dc:title />
        <dc:creator>
          <cc:Agent>
            <dc:title>Roderick C. I. MacKenzie</dc:title>
          </cc:Agent>
        </dc:creator>
      </cc:Work>
    </rdf:RDF>
  </metadata>
  <g
     id="layer1"
     inkscape:label="Layer 1"
     inkscape:groupmode="layer">
    <path
       style="fill:none;fill-rule:evenodd;stroke:#ff0000;stroke-width:1px;stroke-linecap:butt;stroke-linejoin:miter;stroke-opacity:1"
       d="m 8.5,28.25 1.5,-17 13,12.125 z"
       id="path843"
       inkscape:connector-curvature="0" />
    <path
       style="fill:none;fill-rule:evenodd;stroke:#ff0000;stroke-width:1px;stroke-linecap:butt;stroke-linejoin:miter;stroke-opacity:1"
       d="m 10,11.25 19.25,-3.875 -6.25,16 v 0 l 15.875,5 L 29.625,7.5"
       id="path845"
       inkscape:connector-curvature="0" />
    <path
       style="fill:none;fill-rule:evenodd;stroke:#ff0000;stroke-width:1px;stroke-linecap:butt;stroke-linejoin:miter;stroke-opacity:1"
       d="m 8.5,28.25 12.375,8.125 2.125,-13 v 0"
       id="path847"
       inkscape:connector-curvature="0" />
    <path
       style="fill:none;fill-rule:evenodd;stroke:#ff0000;stroke-width:1px;stroke-linecap:butt;stroke-linejoin:miter;stroke-opacity:1"
       d="m 38.875,28.375 -3.75,10.75 -14.25,-2.75"
       id="path861"
       inkscape:connector-curvature="0" />
    <path
       style="fill:none;fill-rule:evenodd;stroke:#ff0000;stroke-width:1px;stroke-linecap:butt;stroke-linejoin:miter;stroke-opacity:1"
       d="m 20.875,36.375 18,-8"
       id="path871"
       inkscape:connector-curvature="0" />
    <path
       inkscape:connector-curvature="0"
       style="fill:#4d4d4d;stroke-width:0.12785999"
       d="m 45.208573,33.973917 c -0.05575,-0.07301 -0.12786,-0.11648 -0.218769,-0.130289 l -1.906265,-0.291649 c -0.104205,-0.333331 -0.246641,-0.673566 -0.42718,-1.020834 0.124919,-0.173634 0.312362,-0.418358 0.562329,-0.734428 0.249966,-0.31607 0.427052,-0.546857 0.531258,-0.692745 0.05562,-0.07646 0.08324,-0.156245 0.08324,-0.23961 0,-0.09717 -0.02417,-0.173506 -0.07288,-0.229125 -0.249966,-0.3543 -0.822906,-0.944502 -1.718821,-1.770989 -0.08311,-0.06943 -0.170054,-0.104078 -0.260196,-0.104078 -0.104205,0 -0.18757,0.0312 -0.250094,0.09359 l -1.479088,1.114687 C 39.767235,29.822559 39.454745,29.694059 39.114509,29.58231 L 38.82286,27.665688 c -0.0069,-0.09027 -0.04692,-0.164939 -0.119804,-0.22401 -0.07301,-0.05907 -0.157908,-0.08848 -0.255337,-0.08848 h -2.312987 c -0.20138,0 -0.326427,0.09717 -0.375014,0.291648 -0.09027,0.34714 -0.191022,0.992961 -0.302133,1.937079 -0.326426,0.104334 -0.641857,0.236285 -0.947954,0.395983 l -1.43753,-1.114684 c -0.09027,-0.06943 -0.180538,-0.104078 -0.270807,-0.104078 -0.152793,0 -0.480882,0.248176 -0.984394,0.744785 -0.503513,0.496608 -0.845411,0.869831 -1.026716,1.119797 -0.06252,0.09027 -0.09372,0.170182 -0.09372,0.23961 0,0.08336 0.03465,0.16673 0.104078,0.249966 0.465282,0.562584 0.836843,1.041676 1.114683,1.437658 -0.173634,0.319395 -0.309038,0.638917 -0.406211,0.958311 l -1.937079,0.291649 c -0.07633,0.01394 -0.142309,0.05907 -0.197928,0.135531 -0.05562,0.07633 -0.08336,0.156245 -0.08336,0.239482 v 2.312987 c 0,0.0904 0.02775,0.171844 0.08336,0.244724 0.05562,0.07301 0.12786,0.116609 0.218769,0.130418 l 1.906392,0.281292 c 0.09717,0.340236 0.239482,0.683923 0.427053,1.030552 -0.124919,0.173634 -0.31249,0.418358 -0.562456,0.734428 -0.249967,0.316069 -0.427181,0.546857 -0.531259,0.692745 -0.05562,0.07659 -0.08336,0.156245 -0.08336,0.23961 0,0.09027 0.02429,0.170053 0.07288,0.239481 0.270808,0.375142 0.843749,0.958567 1.718822,1.750148 0.07646,0.07646 0.163278,0.114563 0.260451,0.114563 0.104206,0 0.191023,-0.0312 0.260451,-0.09359 l 1.468856,-1.114815 c 0.284872,0.145888 0.597362,0.274387 0.937598,0.386137 l 0.291648,1.916621 c 0.007,0.09027 0.04693,0.16494 0.119805,0.224011 0.07288,0.0592 0.158035,0.08848 0.255209,0.08848 h 2.312987 c 0.201635,0 0.326554,-0.09717 0.375269,-0.291648 0.09014,-0.347268 0.190767,-0.992961 0.301878,-1.937079 0.326426,-0.104206 0.643136,-0.236286 0.947954,-0.395983 l 1.437658,1.125168 c 0.09717,0.0624 0.18757,0.09359 0.270807,0.09359 0.152665,0 0.479092,-0.246387 0.979024,-0.739543 0.500189,-0.493028 0.843876,-0.868169 1.030552,-1.125168 0.06252,-0.06943 0.09385,-0.149212 0.09385,-0.239481 0,-0.09027 -0.03465,-0.177342 -0.104206,-0.260451 -0.499932,-0.611171 -0.871494,-1.090262 -1.114683,-1.43753 0.138856,-0.256999 0.274387,-0.572941 0.406339,-0.947955 l 1.92685,-0.29152 c 0.08324,-0.01394 0.152921,-0.0592 0.208412,-0.13566 0.05549,-0.07646 0.08311,-0.156373 0.08311,-0.23961 v -2.312984 c 1.3e-5,-0.09027 -0.02749,-0.171716 -0.08324,-0.244724 m -6.031156,3.265672 c -0.520773,0.520902 -1.149333,0.781353 -1.885551,0.781353 -0.736218,0 -1.36465,-0.260451 -1.885551,-0.781353 -0.520774,-0.520773 -0.781225,-1.149205 -0.781225,-1.885423 0,-0.736218 0.260323,-1.36465 0.781225,-1.885552 0.520901,-0.520773 1.149461,-0.781224 1.885551,-0.781224 0.736218,0 1.364778,0.260451 1.885551,0.781224 0.520775,0.520902 0.781225,1.149334 0.781225,1.885552 0,0.736218 -0.26045,1.36465 -0.781225,1.885423"
       id="path8" />
  </g>
</svg>
