<?xml version="1.0" encoding="UTF-8" standalone="no"?>
<!-- Created with Inkscape (http://www.inkscape.org/) -->

<svg
   xmlns:dc="http://purl.org/dc/elements/1.1/"
   xmlns:cc="http://creativecommons.org/ns#"
   xmlns:rdf="http://www.w3.org/1999/02/22-rdf-syntax-ns#"
   xmlns:svg="http://www.w3.org/2000/svg"
   xmlns="http://www.w3.org/2000/svg"
   xmlns:xlink="http://www.w3.org/1999/xlink"
   xmlns:sodipodi="http://sodipodi.sourceforge.net/DTD/sodipodi-0.dtd"
   xmlns:inkscape="http://www.inkscape.org/namespaces/inkscape"
   width="48px"
   height="48px"
   id="svg1306"
   sodipodi:version="0.32"
   inkscape:version="0.92.2 (5c3e80d, 2017-08-06)"
   sodipodi:docname="sunsvoc.svg"
   inkscape:output_extension="org.inkscape.output.svg.inkscape"
   version="1.1">
  <defs
     id="defs1308">
    <inkscape:perspective
       sodipodi:type="inkscape:persp3d"
       inkscape:vp_x="0 : 24 : 1"
       inkscape:vp_y="0 : 1000 : 0"
       inkscape:vp_z="48 : 24 : 1"
       inkscape:persp3d-origin="24 : 16 : 1"
       id="perspective108" />
    <linearGradient
       id="linearGradient4083">
      <stop
         id="stop4085"
         offset="0"
         style="stop-color:#ffffff;stop-opacity:0;" />
      <stop
         style="stop-color:#ffffff;stop-opacity:0;"
         offset="0.75"
         id="stop4089" />
      <stop
         id="stop4087"
         offset="1"
         style="stop-color:#ffffff;stop-opacity:1;" />
    </linearGradient>
    <linearGradient
       id="linearGradient4032">
      <stop
         id="stop4034"
         offset="0"
         style="stop-color:#fff7c2;stop-opacity:0.63829786" />
      <stop
         style="stop-color:#fcaf3e;stop-opacity:0.18348624;"
         offset="0.59394139"
         id="stop4036" />
      <stop
         id="stop4038"
         offset="0.83850551"
         style="stop-color:#fcaf3e;stop-opacity:0.50458717;" />
      <stop
         id="stop4040"
         offset="1"
         style="stop-color:#fcaf3e;stop-opacity:1;" />
    </linearGradient>
    <linearGradient
       id="linearGradient4026">
      <stop
         id="stop4028"
         offset="0"
         style="stop-color:#fff9c6;stop-opacity:1" />
      <stop
         style="stop-color:#fff28c;stop-opacity:1;"
         offset="0.54166669"
         id="stop4042" />
      <stop
         id="stop4030"
         offset="1"
         style="stop-color:#ffea85;stop-opacity:1;" />
    </linearGradient>
    <linearGradient
       inkscape:collect="always"
       xlink:href="#linearGradient4026"
       id="linearGradient3168"
       gradientUnits="userSpaceOnUse"
       x1="-28.968945"
       y1="-25.326815"
       x2="-37.19698"
       y2="-9.5590506" />
    <radialGradient
       inkscape:collect="always"
       xlink:href="#linearGradient4032"
       id="radialGradient4020"
       cx="-33.519073"
       cy="-22.113297"
       fx="-33.519073"
       fy="-22.113297"
       r="9.5"
       gradientUnits="userSpaceOnUse"
       gradientTransform="matrix(0.487739,1.292402,-1.10267,0.497242,-41.77393,32.41492)" />
    <radialGradient
       inkscape:collect="always"
       xlink:href="#linearGradient4083"
       id="radialGradient4081"
       cx="23.99999"
       cy="23.381506"
       fx="23.99999"
       fy="23.381506"
       r="19.141981"
       gradientTransform="matrix(1.006701,0,0,1.007522,-0.160816,0.426981)"
       gradientUnits="userSpaceOnUse" />
  </defs>
  <sodipodi:namedview
     id="base"
     pagecolor="#ffffff"
     bordercolor="#666666"
     borderopacity="1.0"
     inkscape:pageopacity="0.0"
     inkscape:pageshadow="2"
     inkscape:zoom="10.54135"
     inkscape:cx="-3.7937599"
     inkscape:cy="24.571145"
     inkscape:current-layer="layer1"
     showgrid="true"
     inkscape:grid-bbox="true"
     inkscape:document-units="px"
     inkscape:window-width="1920"
     inkscape:window-height="953"
     inkscape:window-x="0"
     inkscape:window-y="49"
     inkscape:showpageshadow="false"
     inkscape:window-maximized="1" />
  <metadata
     id="metadata1311">
    <rdf:RDF>
      <cc:Work
         rdf:about="">
        <dc:format>image/svg+xml</dc:format>
        <dc:type
           rdf:resource="http://purl.org/dc/dcmitype/StillImage" />
        <dc:title />
        <dc:date>January 2006</dc:date>
        <dc:creator>
          <cc:Agent>
            <dc:title>Ryan Collier (pseudo)</dc:title>
          </cc:Agent>
        </dc:creator>
        <dc:publisher>
          <cc:Agent>
            <dc:title>http://www.tango-project.org</dc:title>
          </cc:Agent>
        </dc:publisher>
        <dc:source>http://www.pseudocode.org</dc:source>
        <dc:subject>
          <rdf:Bag>
            <rdf:li>weather</rdf:li>
            <rdf:li>applet</rdf:li>
            <rdf:li>notification</rdf:li>
          </rdf:Bag>
        </dc:subject>
        <cc:license
           rdf:resource="http://creativecommons.org/licenses/publicdomain/" />
        <dc:contributor>
          <cc:Agent>
            <dc:title>Garrett LeSage</dc:title>
          </cc:Agent>
        </dc:contributor>
      </cc:Work>
      <cc:License
         rdf:about="http://creativecommons.org/licenses/publicdomain/">
        <cc:permits
           rdf:resource="http://creativecommons.org/ns#Reproduction" />
        <cc:permits
           rdf:resource="http://creativecommons.org/ns#Distribution" />
        <cc:permits
           rdf:resource="http://creativecommons.org/ns#DerivativeWorks" />
      </cc:License>
    </rdf:RDF>
  </metadata>
  <g
     id="layer1"
     inkscape:label="Layer 1"
     inkscape:groupmode="layer">
    <g
       id="g930"
       transform="matrix(0.91950219,0,0,0.92537018,-0.51115886,-0.52822121)">
      <g
         style="opacity:0.7"
         id="g4091">
        <path
           style="fill:#fce94f;fill-opacity:1;stroke:#fcaf3e;stroke-width:0.73732895;stroke-linecap:square;stroke-linejoin:miter;stroke-miterlimit:4;stroke-dasharray:none;stroke-opacity:1"
           d="M 24,2.5 21.625,9.1875 C 22.399034,9.0641318 23.191406,9 24,9 c 0.808594,0 1.600966,0.064132 2.375,0.1875 z m -15.1875,6.28125 3.03125,6.4375 c 0.935284,-1.290181 2.084819,-2.439716 3.375,-3.375 z m 30.40625,0 -6.4375,3.0625 c 1.290181,0.935284 2.439716,2.084819 3.375,3.375 z M 9.1875,21.59375 2.5,23.96875 l 6.6875,2.375 C 9.0673373,25.57952 9,24.797813 9,24 9,23.180625 9.0608858,22.377571 9.1875,21.59375 Z M 38.8125,21.625 C 38.935868,22.399034 39,23.191406 39,24 c 0,0.808594 -0.06413,1.600966 -0.1875,2.375 L 45.5,24 Z M 11.84375,32.78125 8.8125,39.1875 15.21875,36.15625 c -1.290181,-0.935284 -2.439716,-2.084819 -3.375,-3.375 z m 24.3125,0 c -0.926461,1.27801 -2.068633,2.413549 -3.34375,3.34375 l 6.40625,3.0625 z M 21.625,38.8125 24,45.5 26.375,38.8125 C 25.600966,38.935868 24.808594,39 24,39 23.191406,39 22.399034,38.93587 21.625,38.8125 Z"
           id="path7492"
           inkscape:connector-curvature="0" />
        <path
           style="fill:none;fill-opacity:1;stroke:url(#radialGradient4081);stroke-width:0.84646249;stroke-linecap:square;stroke-linejoin:miter;stroke-miterlimit:4;stroke-dasharray:none;stroke-opacity:1"
           d="M 24,5.25 22.65625,9.0625 C 23.098888,9.0231486 23.547187,9 24,9 c 0.452813,0 0.901112,0.023149 1.34375,0.0625 z M 10.78125,10.75 12.5,14.375 c 0.571538,-0.680911 1.224004,-1.336255 1.90625,-1.90625 z m 26.46875,0 -3.625,1.71875 c 0.679675,0.569439 1.336811,1.226575 1.90625,1.90625 z M 9.0625,22.625 5.28125,23.96875 9.0625,25.3125 C 9.024981,24.880146 9,24.442031 9,24 9,23.536406 9.0212735,23.077908 9.0625,22.625 Z m 29.875,0.03125 C 38.976851,23.098888 39,23.547187 39,24 c 0,0.452813 -0.02315,0.901112 -0.0625,1.34375 L 42.71875,24 Z m -3.40625,10.9375 c -0.572957,0.68579 -1.221265,1.363613 -1.90625,1.9375 L 37.25,37.25 Z M 12.5,33.625 10.78125,37.21875 14.375,35.5 C 13.702932,34.935884 13.064116,34.297068 12.5,33.625 Z M 22.65625,38.9375 24,42.71875 25.34375,38.9375 C 24.901112,38.976851 24.452813,39 24,39 23.547187,39 23.098888,38.97685 22.65625,38.9375 Z"
           id="path7494"
           inkscape:connector-curvature="0" />
      </g>
      <g
         transform="translate(-0.18972902,-0.66405157)"
         id="g4046">
        <g
           id="g3931">
          <circle
             inkscape:r_cy="true"
             inkscape:r_cx="true"
             transform="matrix(0.778062,-1.061285,1.061287,0.778062,67.47952,3.641324)"
             id="path7498"
             style="fill:#ffee54;fill-opacity:1;stroke:#fcaf3e;stroke-width:0.75991178;stroke-linecap:square;stroke-linejoin:miter;stroke-miterlimit:4;stroke-dasharray:none;stroke-opacity:1"
             cx="-32"
             cy="-17.5"
             r="9.5" />
          <circle
             inkscape:r_cy="true"
             inkscape:r_cx="true"
             transform="matrix(1.244257,-0.167707,0.216642,1.251844,67.61648,40.527)"
             id="path7500"
             style="fill:url(#radialGradient4020);fill-opacity:1;stroke:none;stroke-width:1.01737845;stroke-linecap:square;stroke-linejoin:miter;stroke-miterlimit:4;stroke-dasharray:none;stroke-opacity:1"
             cx="-32"
             cy="-17.5"
             r="9.5" />
          <circle
             inkscape:r_cy="true"
             inkscape:r_cx="true"
             transform="matrix(0.715791,-0.976349,0.97635,0.715792,64.00044,5.269544)"
             id="path7502"
             style="fill:none;fill-opacity:1;stroke:url(#linearGradient3168);stroke-width:0.82601947;stroke-linecap:square;stroke-linejoin:miter;stroke-miterlimit:4;stroke-dasharray:none;stroke-opacity:1"
             cx="-32"
             cy="-17.5"
             r="9.5" />
        </g>
      </g>
    </g>
    <text
       xml:space="preserve"
       style="font-style:normal;font-weight:normal;font-size:15px;line-height:125%;font-family:sans-serif;letter-spacing:0px;word-spacing:0px;fill:#000000;fill-opacity:1;stroke:none;stroke-width:1px;stroke-linecap:butt;stroke-linejoin:miter;stroke-opacity:1"
       x="22.198296"
       y="39.462196"
       id="text934"><tspan
         sodipodi:role="line"
         id="tspan932"
         x="22.198296"
         y="39.462196">V<tspan
   style="font-size:64.99999762%;baseline-shift:sub"
   id="tspan936">oc</tspan></tspan></text>
  </g>
</svg>
