<?xml version="1.0" encoding="UTF-8" standalone="no"?>
<!-- Created with Inkscape (http://www.inkscape.org/) -->

<svg
   xmlns:dc="http://purl.org/dc/elements/1.1/"
   xmlns:cc="http://creativecommons.org/ns#"
   xmlns:rdf="http://www.w3.org/1999/02/22-rdf-syntax-ns#"
   xmlns:svg="http://www.w3.org/2000/svg"
   xmlns="http://www.w3.org/2000/svg"
   xmlns:xlink="http://www.w3.org/1999/xlink"
   xmlns:sodipodi="http://sodipodi.sourceforge.net/DTD/sodipodi-0.dtd"
   xmlns:inkscape="http://www.inkscape.org/namespaces/inkscape"
   inkscape:export-ydpi="90"
   inkscape:export-xdpi="90"
   inkscape:export-filename="/home/rod/wolfgang/hpc/4/orig/gui/server.png"
   sodipodi:docname="sync.svg"
   inkscape:version="0.92+devel unknown"
   version="1.1"
   id="svg3885"
   height="48px"
   width="48px">
  <defs
     id="defs3887">
    <linearGradient
       inkscape:collect="always"
       id="linearGradient3810">
      <stop
         style="stop-color:#0000ff;stop-opacity:1;"
         offset="0"
         id="stop3812" />
      <stop
         style="stop-color:#0000ff;stop-opacity:0;"
         offset="1"
         id="stop3814" />
    </linearGradient>
    <linearGradient
       inkscape:collect="always"
       xlink:href="#linearGradient3810"
       id="linearGradient3816"
       x1="20.597935"
       y1="21.365049"
       x2="20.261415"
       y2="-5.0789695"
       gradientUnits="userSpaceOnUse" />
    <linearGradient
       inkscape:collect="always"
       xlink:href="#linearGradient3810-1"
       id="linearGradient3816-7"
       x1="20.597935"
       y1="21.365049"
       x2="20.261415"
       y2="-5.0789695"
       gradientUnits="userSpaceOnUse" />
    <linearGradient
       inkscape:collect="always"
       id="linearGradient3810-1">
      <stop
         style="stop-color:#0000ff;stop-opacity:1;"
         offset="0"
         id="stop3812-5" />
      <stop
         style="stop-color:#0000ff;stop-opacity:0;"
         offset="1"
         id="stop3814-7" />
    </linearGradient>
    <linearGradient
       gradientTransform="matrix(1,0,0,-1,-0.0954654,41.679978)"
       y2="-5.0789695"
       x2="20.261415"
       y1="21.365049"
       x1="20.597935"
       gradientUnits="userSpaceOnUse"
       id="linearGradient3833"
       xlink:href="#linearGradient3810-1"
       inkscape:collect="always" />
    <linearGradient
       inkscape:collect="always"
       xlink:href="#linearGradient3810"
       id="linearGradient3943"
       gradientUnits="userSpaceOnUse"
       x1="20.597935"
       y1="21.365049"
       x2="20.261415"
       y2="-5.0789695" />
    <linearGradient
       inkscape:collect="always"
       xlink:href="#linearGradient3810-1"
       id="linearGradient3945"
       gradientUnits="userSpaceOnUse"
       gradientTransform="matrix(1,0,0,-1,-0.0954654,41.679978)"
       x1="20.597935"
       y1="21.365049"
       x2="20.261415"
       y2="-5.0789695" />
    <linearGradient
       inkscape:collect="always"
       xlink:href="#linearGradient3810"
       id="linearGradient3951"
       gradientUnits="userSpaceOnUse"
       x1="20.597935"
       y1="21.365049"
       x2="20.261415"
       y2="-5.0789695" />
    <linearGradient
       inkscape:collect="always"
       xlink:href="#linearGradient3810-1"
       id="linearGradient3953"
       gradientUnits="userSpaceOnUse"
       gradientTransform="matrix(1,0,0,-1,-0.0954654,41.679978)"
       x1="20.597935"
       y1="21.365049"
       x2="20.261415"
       y2="-5.0789695" />
    <filter
       color-interpolation-filters="sRGB"
       inkscape:collect="always"
       id="filter3903-8-7"
       x="-2.0484126"
       width="5.0968251"
       y="-0.2363553"
       height="1.4727106">
      <feGaussianBlur
         inkscape:collect="always"
         stdDeviation="0.56188773"
         id="feGaussianBlur3905-9-8" />
    </filter>
    <filter
       color-interpolation-filters="sRGB"
       inkscape:collect="always"
       id="filter3903-2-5-9"
       x="-2.0484126"
       width="5.0968251"
       y="-0.2363553"
       height="1.4727106">
      <feGaussianBlur
         inkscape:collect="always"
         stdDeviation="0.56188773"
         id="feGaussianBlur3905-6-6-8" />
    </filter>
    <filter
       color-interpolation-filters="sRGB"
       inkscape:collect="always"
       id="filter4091-13-5"
       x="-0.95238096"
       width="2.9047618"
       y="-0.95238096"
       height="2.9047618">
      <feGaussianBlur
         inkscape:collect="always"
         stdDeviation="0.37009264"
         id="feGaussianBlur4093-2-0" />
    </filter>
    <filter
       color-interpolation-filters="sRGB"
       inkscape:collect="always"
       id="filter4091-4-22-1"
       x="-0.95238096"
       width="2.9047618"
       y="-0.95238096"
       height="2.9047618">
      <feGaussianBlur
         inkscape:collect="always"
         stdDeviation="0.37009264"
         id="feGaussianBlur4093-5-79-2" />
    </filter>
    <filter
       color-interpolation-filters="sRGB"
       inkscape:collect="always"
       id="filter4091-4-5-3-3"
       x="-0.95238096"
       width="2.9047618"
       y="-0.95238096"
       height="2.9047618">
      <feGaussianBlur
         inkscape:collect="always"
         stdDeviation="0.37009264"
         id="feGaussianBlur4093-5-7-4-8" />
    </filter>
    <filter
       color-interpolation-filters="sRGB"
       inkscape:collect="always"
       id="filter4091-3-2-4"
       x="-0.95238096"
       width="2.9047618"
       y="-0.95238096"
       height="2.9047618">
      <feGaussianBlur
         inkscape:collect="always"
         stdDeviation="0.37009264"
         id="feGaussianBlur4093-52-7-0" />
    </filter>
    <filter
       color-interpolation-filters="sRGB"
       inkscape:collect="always"
       id="filter4091-4-2-3-8"
       x="-0.95238096"
       width="2.9047618"
       y="-0.95238096"
       height="2.9047618">
      <feGaussianBlur
         inkscape:collect="always"
         stdDeviation="0.37009264"
         id="feGaussianBlur4093-5-8-0-2" />
    </filter>
    <filter
       color-interpolation-filters="sRGB"
       inkscape:collect="always"
       id="filter4091-4-5-0-2-8"
       x="-0.95238096"
       width="2.9047618"
       y="-0.95238096"
       height="2.9047618">
      <feGaussianBlur
         inkscape:collect="always"
         stdDeviation="0.37009264"
         id="feGaussianBlur4093-5-7-9-0-4" />
    </filter>
    <filter
       color-interpolation-filters="sRGB"
       inkscape:collect="always"
       id="filter4091-1-1-9"
       x="-0.95238096"
       width="2.9047618"
       y="-0.95238096"
       height="2.9047618">
      <feGaussianBlur
         inkscape:collect="always"
         stdDeviation="0.37009264"
         id="feGaussianBlur4093-6-7-9" />
    </filter>
    <filter
       color-interpolation-filters="sRGB"
       inkscape:collect="always"
       id="filter4091-4-7-9-7"
       x="-0.95238096"
       width="2.9047618"
       y="-0.95238096"
       height="2.9047618">
      <feGaussianBlur
         inkscape:collect="always"
         stdDeviation="0.37009264"
         id="feGaussianBlur4093-5-6-6-8" />
    </filter>
    <filter
       color-interpolation-filters="sRGB"
       inkscape:collect="always"
       id="filter4091-4-5-2-8-4"
       x="-0.95238096"
       width="2.9047618"
       y="-0.95238096"
       height="2.9047618">
      <feGaussianBlur
         inkscape:collect="always"
         stdDeviation="0.37009264"
         id="feGaussianBlur4093-5-7-2-7-2" />
    </filter>
    <filter
       color-interpolation-filters="sRGB"
       inkscape:collect="always"
       id="filter4091-3-5-5-1"
       x="-0.95238096"
       width="2.9047618"
       y="-0.95238096"
       height="2.9047618">
      <feGaussianBlur
         inkscape:collect="always"
         stdDeviation="0.37009264"
         id="feGaussianBlur4093-52-0-03-2" />
    </filter>
    <filter
       color-interpolation-filters="sRGB"
       inkscape:collect="always"
       id="filter4091-4-2-0-3-6"
       x="-0.95238096"
       width="2.9047618"
       y="-0.95238096"
       height="2.9047618">
      <feGaussianBlur
         inkscape:collect="always"
         stdDeviation="0.37009264"
         id="feGaussianBlur4093-5-8-2-5-2" />
    </filter>
    <filter
       color-interpolation-filters="sRGB"
       inkscape:collect="always"
       id="filter4091-4-5-0-8-1-4"
       x="-0.95238096"
       width="2.9047618"
       y="-0.95238096"
       height="2.9047618">
      <feGaussianBlur
         inkscape:collect="always"
         stdDeviation="0.37009264"
         id="feGaussianBlur4093-5-7-9-7-0-7" />
    </filter>
    <filter
       color-interpolation-filters="sRGB"
       inkscape:collect="always"
       id="filter4091-1-3-7-2"
       x="-0.95238096"
       width="2.9047618"
       y="-0.95238096"
       height="2.9047618">
      <feGaussianBlur
         inkscape:collect="always"
         stdDeviation="0.37009264"
         id="feGaussianBlur4093-6-3-9-0" />
    </filter>
    <filter
       color-interpolation-filters="sRGB"
       inkscape:collect="always"
       id="filter4091-4-7-1-7-0"
       x="-0.95238096"
       width="2.9047618"
       y="-0.95238096"
       height="2.9047618">
      <feGaussianBlur
         inkscape:collect="always"
         stdDeviation="0.37009264"
         id="feGaussianBlur4093-5-6-4-1-1" />
    </filter>
    <filter
       color-interpolation-filters="sRGB"
       inkscape:collect="always"
       id="filter4091-4-5-2-5-2-1"
       x="-0.95238096"
       width="2.9047618"
       y="-0.95238096"
       height="2.9047618">
      <feGaussianBlur
         inkscape:collect="always"
         stdDeviation="0.37009264"
         id="feGaussianBlur4093-5-7-2-3-7-1" />
    </filter>
    <filter
       color-interpolation-filters="sRGB"
       inkscape:collect="always"
       id="filter4091-3-5-4-8-0"
       x="-0.95238096"
       width="2.9047618"
       y="-0.95238096"
       height="2.9047618">
      <feGaussianBlur
         inkscape:collect="always"
         stdDeviation="0.37009264"
         id="feGaussianBlur4093-52-0-0-5-6" />
    </filter>
    <filter
       color-interpolation-filters="sRGB"
       inkscape:collect="always"
       id="filter4091-4-2-0-8-5-1"
       x="-0.95238096"
       width="2.9047618"
       y="-0.95238096"
       height="2.9047618">
      <feGaussianBlur
         inkscape:collect="always"
         stdDeviation="0.37009264"
         id="feGaussianBlur4093-5-8-2-7-3-3" />
    </filter>
    <filter
       color-interpolation-filters="sRGB"
       inkscape:collect="always"
       id="filter4091-4-5-0-8-2-3-1"
       x="-0.95238096"
       width="2.9047618"
       y="-0.95238096"
       height="2.9047618">
      <feGaussianBlur
         inkscape:collect="always"
         stdDeviation="0.37009264"
         id="feGaussianBlur4093-5-7-9-7-2-7-7" />
    </filter>
    <filter
       color-interpolation-filters="sRGB"
       inkscape:collect="always"
       id="filter4091-1-3-6-1-1"
       x="-0.95238096"
       width="2.9047618"
       y="-0.95238096"
       height="2.9047618">
      <feGaussianBlur
         inkscape:collect="always"
         stdDeviation="0.37009264"
         id="feGaussianBlur4093-6-3-0-4-7" />
    </filter>
    <filter
       color-interpolation-filters="sRGB"
       inkscape:collect="always"
       id="filter4091-4-7-1-1-6-9"
       x="-0.95238096"
       width="2.9047618"
       y="-0.95238096"
       height="2.9047618">
      <feGaussianBlur
         inkscape:collect="always"
         stdDeviation="0.37009264"
         id="feGaussianBlur4093-5-6-4-2-3-2" />
    </filter>
    <filter
       color-interpolation-filters="sRGB"
       inkscape:collect="always"
       id="filter4091-4-5-2-5-1-8-1"
       x="-0.95238096"
       width="2.9047618"
       y="-0.95238096"
       height="2.9047618">
      <feGaussianBlur
         inkscape:collect="always"
         stdDeviation="0.37009264"
         id="feGaussianBlur4093-5-7-2-3-9-7-8" />
    </filter>
    <filter
       color-interpolation-filters="sRGB"
       inkscape:collect="always"
       id="filter4091-3-5-4-6-6-6"
       x="-0.95238096"
       width="2.9047618"
       y="-0.95238096"
       height="2.9047618">
      <feGaussianBlur
         inkscape:collect="always"
         stdDeviation="0.37009264"
         id="feGaussianBlur4093-52-0-0-0-0-1" />
    </filter>
    <filter
       color-interpolation-filters="sRGB"
       inkscape:collect="always"
       id="filter4091-4-2-0-8-8-0-9"
       x="-0.95238096"
       width="2.9047618"
       y="-0.95238096"
       height="2.9047618">
      <feGaussianBlur
         inkscape:collect="always"
         stdDeviation="0.37009264"
         id="feGaussianBlur4093-5-8-2-7-5-0-3" />
    </filter>
    <filter
       color-interpolation-filters="sRGB"
       inkscape:collect="always"
       id="filter4091-4-5-0-8-2-6-8-1"
       x="-0.95238096"
       width="2.9047618"
       y="-0.95238096"
       height="2.9047618">
      <feGaussianBlur
         inkscape:collect="always"
         stdDeviation="0.37009264"
         id="feGaussianBlur4093-5-7-9-7-2-0-4-3" />
    </filter>
    <filter
       style="color-interpolation-filters:sRGB"
       inkscape:collect="always"
       id="filter3829-3-4"
       x="-0.094178885"
       width="1.1883578"
       y="-0.43122151"
       height="1.862443">
      <feGaussianBlur
         inkscape:collect="always"
         stdDeviation="1.0474909"
         id="feGaussianBlur3831-8-6" />
    </filter>
    <filter
       style="color-interpolation-filters:sRGB"
       inkscape:collect="always"
       id="filter3970">
      <feGaussianBlur
         inkscape:collect="always"
         stdDeviation="0.42072717"
         id="feGaussianBlur3972" />
    </filter>
    <filter
       style="color-interpolation-filters:sRGB"
       inkscape:collect="always"
       id="filter3829-3"
       x="-0.094178885"
       width="1.1883578"
       y="-0.43122151"
       height="1.862443">
      <feGaussianBlur
         inkscape:collect="always"
         stdDeviation="1.0474909"
         id="feGaussianBlur3831-8" />
    </filter>
    <filter
       style="color-interpolation-filters:sRGB"
       inkscape:collect="always"
       id="filter3970-7">
      <feGaussianBlur
         inkscape:collect="always"
         stdDeviation="0.42072717"
         id="feGaussianBlur3972-2" />
    </filter>
    <filter
       style="color-interpolation-filters:sRGB"
       inkscape:collect="always"
       id="filter3829"
       x="-0.094178885"
       width="1.1883578"
       y="-0.43122151"
       height="1.862443">
      <feGaussianBlur
         inkscape:collect="always"
         stdDeviation="1.0474909"
         id="feGaussianBlur3831" />
    </filter>
  </defs>
  <sodipodi:namedview
     inkscape:document-rotation="0"
     inkscape:window-maximized="0"
     inkscape:window-y="63"
     inkscape:window-x="517"
     inkscape:window-height="936"
     inkscape:window-width="1397"
     inkscape:document-units="px"
     inkscape:grid-bbox="true"
     showgrid="true"
     inkscape:current-layer="layer1"
     inkscape:cy="23.069198"
     inkscape:cx="-10.949787"
     inkscape:zoom="7.2604165"
     inkscape:pageshadow="2"
     inkscape:pageopacity="0.0"
     borderopacity="1.0"
     bordercolor="#666666"
     pagecolor="#ffffff"
     id="base" />
  <metadata
     id="metadata3890">
    <rdf:RDF>
      <cc:Work
         rdf:about="">
        <dc:format>image/svg+xml</dc:format>
        <dc:type
           rdf:resource="http://purl.org/dc/dcmitype/StillImage" />
        <dc:title />
        <dc:creator>
          <cc:Agent>
            <dc:title>Roderick C.I. MacKenzie</dc:title>
          </cc:Agent>
        </dc:creator>
      </cc:Work>
    </rdf:RDF>
  </metadata>
  <g
     id="layer1"
     inkscape:label="Layer 1"
     inkscape:groupmode="layer">
    <rect
       style="fill:#000000;fill-opacity:1;stroke:#666666;stroke-width:0.69999999;stroke-miterlimit:4;stroke-opacity:1;stroke-dasharray:none;stroke-dashoffset:0"
       id="rect3041-5-5"
       width="40.678921"
       height="7.8721662"
       x="3.7992885"
       y="27.762304" />
    <rect
       style="fill:#0000ff;fill-opacity:1;stroke:#00ffff;stroke-width:0.40000001;stroke-miterlimit:4;stroke-opacity:1;stroke-dasharray:none;stroke-dashoffset:0"
       id="rect3858-9-4"
       width="2.8527613"
       height="1.2069374"
       x="35.280327"
       y="32.850464" />
    <rect
       style="fill:#e6e6e6;fill-opacity:1;stroke:#ffffff;stroke-width:0.69999999;stroke-miterlimit:4;stroke-opacity:1;stroke-dasharray:none;stroke-dashoffset:0;filter:url(#filter3903-8-7)"
       id="rect3885-74-7"
       width="0.65832955"
       height="5.7055225"
       x="41.58448"
       y="9.92661"
       transform="matrix(1.0123459,0,0,0.8743493,-0.62718294,20.579614)" />
    <rect
       style="fill:#e6e6e6;fill-opacity:1;stroke:#ffffff;stroke-width:0.69999999;stroke-miterlimit:4;stroke-opacity:1;stroke-dasharray:none;stroke-dashoffset:0;filter:url(#filter3903-2-5-9)"
       id="rect3885-7-6-3"
       width="0.65832955"
       height="5.7055225"
       x="41.58448"
       y="9.92661"
       transform="matrix(1.0123459,0,0,0.8743493,-36.407739,20.933789)" />
    <g
       id="g4254-2-6"
       transform="translate(-2.6881779,18.568742)">
      <path
         transform="matrix(0.2779532,0,0,0.25770248,9.1637978,7.9047366)"
         d="m 14.867275,12.422775 a 0.46631673,0.46631673 0 0 1 -0.466317,0.466317 0.46631673,0.46631673 0 0 1 -0.466317,-0.466317 0.46631673,0.46631673 0 0 1 0.466317,-0.466316 0.46631673,0.46631673 0 0 1 0.466317,0.466316 z"
         sodipodi:ry="0.46631673"
         sodipodi:rx="0.46631673"
         sodipodi:cy="12.422775"
         sodipodi:cx="14.400958"
         id="path4069-49-1"
         style="fill:#e6e6e6;fill-opacity:1;stroke:#ffffff;stroke-width:0.69999999;stroke-miterlimit:4;stroke-opacity:1;stroke-dasharray:none;stroke-dashoffset:0;filter:url(#filter4091-13-5)"
         sodipodi:type="arc" />
      <path
         transform="matrix(0.2779532,0,0,0.25770248,10.337818,7.9047366)"
         d="m 14.867275,12.422775 a 0.46631673,0.46631673 0 0 1 -0.466317,0.466317 0.46631673,0.46631673 0 0 1 -0.466317,-0.466317 0.46631673,0.46631673 0 0 1 0.466317,-0.466316 0.46631673,0.46631673 0 0 1 0.466317,0.466316 z"
         sodipodi:ry="0.46631673"
         sodipodi:rx="0.46631673"
         sodipodi:cy="12.422775"
         sodipodi:cx="14.400958"
         id="path4069-4-5-0"
         style="fill:#e6e6e6;fill-opacity:1;stroke:#ffffff;stroke-width:0.69999999;stroke-miterlimit:4;stroke-opacity:1;stroke-dasharray:none;stroke-dashoffset:0;filter:url(#filter4091-4-22-1)"
         sodipodi:type="arc" />
      <path
         transform="matrix(0.2779532,0,0,0.25770248,11.51184,7.9047366)"
         d="m 14.867275,12.422775 a 0.46631673,0.46631673 0 0 1 -0.466317,0.466317 0.46631673,0.46631673 0 0 1 -0.466317,-0.466317 0.46631673,0.46631673 0 0 1 0.466317,-0.466316 0.46631673,0.46631673 0 0 1 0.466317,0.466316 z"
         sodipodi:ry="0.46631673"
         sodipodi:rx="0.46631673"
         sodipodi:cy="12.422775"
         sodipodi:cx="14.400958"
         id="path4069-4-7-9-0"
         style="fill:#e6e6e6;fill-opacity:1;stroke:#ffffff;stroke-width:0.69999999;stroke-miterlimit:4;stroke-opacity:1;stroke-dasharray:none;stroke-dashoffset:0;filter:url(#filter4091-4-5-3-3)"
         sodipodi:type="arc" />
      <path
         transform="matrix(0.2779532,0,0,0.25770248,12.68586,7.9047366)"
         d="m 14.867275,12.422775 a 0.46631673,0.46631673 0 0 1 -0.466317,0.466317 0.46631673,0.46631673 0 0 1 -0.466317,-0.466317 0.46631673,0.46631673 0 0 1 0.466317,-0.466316 0.46631673,0.46631673 0 0 1 0.466317,0.466316 z"
         sodipodi:ry="0.46631673"
         sodipodi:rx="0.46631673"
         sodipodi:cy="12.422775"
         sodipodi:cx="14.400958"
         id="path4069-9-3-4"
         style="fill:#e6e6e6;fill-opacity:1;stroke:#ffffff;stroke-width:0.69999999;stroke-miterlimit:4;stroke-opacity:1;stroke-dasharray:none;stroke-dashoffset:0;filter:url(#filter4091-3-2-4)"
         sodipodi:type="arc" />
      <path
         transform="matrix(0.2779532,0,0,0.25770248,13.859882,7.9047366)"
         d="m 14.867275,12.422775 a 0.46631673,0.46631673 0 0 1 -0.466317,0.466317 0.46631673,0.46631673 0 0 1 -0.466317,-0.466317 0.46631673,0.46631673 0 0 1 0.466317,-0.466316 0.46631673,0.46631673 0 0 1 0.466317,0.466316 z"
         sodipodi:ry="0.46631673"
         sodipodi:rx="0.46631673"
         sodipodi:cy="12.422775"
         sodipodi:cx="14.400958"
         id="path4069-4-2-7-2"
         style="fill:#e6e6e6;fill-opacity:1;stroke:#ffffff;stroke-width:0.69999999;stroke-miterlimit:4;stroke-opacity:1;stroke-dasharray:none;stroke-dashoffset:0;filter:url(#filter4091-4-2-3-8)"
         sodipodi:type="arc" />
      <path
         transform="matrix(0.2779532,0,0,0.25770248,15.033903,7.9047366)"
         d="m 14.867275,12.422775 a 0.46631673,0.46631673 0 0 1 -0.466317,0.466317 0.46631673,0.46631673 0 0 1 -0.466317,-0.466317 0.46631673,0.46631673 0 0 1 0.466317,-0.466316 0.46631673,0.46631673 0 0 1 0.466317,0.466316 z"
         sodipodi:ry="0.46631673"
         sodipodi:rx="0.46631673"
         sodipodi:cy="12.422775"
         sodipodi:cx="14.400958"
         id="path4069-4-7-2-3-2"
         style="fill:#e6e6e6;fill-opacity:1;stroke:#ffffff;stroke-width:0.69999999;stroke-miterlimit:4;stroke-opacity:1;stroke-dasharray:none;stroke-dashoffset:0;filter:url(#filter4091-4-5-0-2-8)"
         sodipodi:type="arc" />
    </g>
    <g
       id="g4262-6-5"
       transform="translate(-2.6881779,18.568742)">
      <path
         transform="matrix(0.2779532,0,0,0.25770248,9.1912278,9.3585476)"
         d="m 14.867275,12.422775 a 0.46631673,0.46631673 0 0 1 -0.466317,0.466317 0.46631673,0.46631673 0 0 1 -0.466317,-0.466317 0.46631673,0.46631673 0 0 1 0.466317,-0.466316 0.46631673,0.46631673 0 0 1 0.466317,0.466316 z"
         sodipodi:ry="0.46631673"
         sodipodi:rx="0.46631673"
         sodipodi:cy="12.422775"
         sodipodi:cx="14.400958"
         id="path4069-2-9-5"
         style="fill:#e6e6e6;fill-opacity:1;stroke:#ffffff;stroke-width:0.69999999;stroke-miterlimit:4;stroke-opacity:1;stroke-dasharray:none;stroke-dashoffset:0;filter:url(#filter4091-1-1-9)"
         sodipodi:type="arc" />
      <path
         transform="matrix(0.2779532,0,0,0.25770248,10.365249,9.3585476)"
         d="m 14.867275,12.422775 a 0.46631673,0.46631673 0 0 1 -0.466317,0.466317 0.46631673,0.46631673 0 0 1 -0.466317,-0.466317 0.46631673,0.46631673 0 0 1 0.466317,-0.466316 0.46631673,0.46631673 0 0 1 0.466317,0.466316 z"
         sodipodi:ry="0.46631673"
         sodipodi:rx="0.46631673"
         sodipodi:cy="12.422775"
         sodipodi:cx="14.400958"
         id="path4069-4-9-5-4"
         style="fill:#e6e6e6;fill-opacity:1;stroke:#ffffff;stroke-width:0.69999999;stroke-miterlimit:4;stroke-opacity:1;stroke-dasharray:none;stroke-dashoffset:0;filter:url(#filter4091-4-7-9-7)"
         sodipodi:type="arc" />
      <path
         transform="matrix(0.2779532,0,0,0.25770248,11.539271,9.3585476)"
         d="m 14.867275,12.422775 a 0.46631673,0.46631673 0 0 1 -0.466317,0.466317 0.46631673,0.46631673 0 0 1 -0.466317,-0.466317 0.46631673,0.46631673 0 0 1 0.466317,-0.466316 0.46631673,0.46631673 0 0 1 0.466317,0.466316 z"
         sodipodi:ry="0.46631673"
         sodipodi:rx="0.46631673"
         sodipodi:cy="12.422775"
         sodipodi:cx="14.400958"
         id="path4069-4-7-6-8-3"
         style="fill:#e6e6e6;fill-opacity:1;stroke:#ffffff;stroke-width:0.69999999;stroke-miterlimit:4;stroke-opacity:1;stroke-dasharray:none;stroke-dashoffset:0;filter:url(#filter4091-4-5-2-8-4)"
         sodipodi:type="arc" />
      <path
         transform="matrix(0.2779532,0,0,0.25770248,12.713291,9.3585476)"
         d="m 14.867275,12.422775 a 0.46631673,0.46631673 0 0 1 -0.466317,0.466317 0.46631673,0.46631673 0 0 1 -0.466317,-0.466317 0.46631673,0.46631673 0 0 1 0.466317,-0.466316 0.46631673,0.46631673 0 0 1 0.466317,0.466316 z"
         sodipodi:ry="0.46631673"
         sodipodi:rx="0.46631673"
         sodipodi:cy="12.422775"
         sodipodi:cx="14.400958"
         id="path4069-9-6-8-7"
         style="fill:#e6e6e6;fill-opacity:1;stroke:#ffffff;stroke-width:0.69999999;stroke-miterlimit:4;stroke-opacity:1;stroke-dasharray:none;stroke-dashoffset:0;filter:url(#filter4091-3-5-5-1)"
         sodipodi:type="arc" />
      <path
         transform="matrix(0.2779532,0,0,0.25770248,13.887313,9.3585476)"
         d="m 14.867275,12.422775 a 0.46631673,0.46631673 0 0 1 -0.466317,0.466317 0.46631673,0.46631673 0 0 1 -0.466317,-0.466317 0.46631673,0.46631673 0 0 1 0.466317,-0.466316 0.46631673,0.46631673 0 0 1 0.466317,0.466316 z"
         sodipodi:ry="0.46631673"
         sodipodi:rx="0.46631673"
         sodipodi:cy="12.422775"
         sodipodi:cx="14.400958"
         id="path4069-4-2-6-6-7"
         style="fill:#e6e6e6;fill-opacity:1;stroke:#ffffff;stroke-width:0.69999999;stroke-miterlimit:4;stroke-opacity:1;stroke-dasharray:none;stroke-dashoffset:0;filter:url(#filter4091-4-2-0-3-6)"
         sodipodi:type="arc" />
      <path
         transform="matrix(0.2779532,0,0,0.25770248,15.061334,9.3585476)"
         d="m 14.867275,12.422775 a 0.46631673,0.46631673 0 0 1 -0.466317,0.466317 0.46631673,0.46631673 0 0 1 -0.466317,-0.466317 0.46631673,0.46631673 0 0 1 0.466317,-0.466316 0.46631673,0.46631673 0 0 1 0.466317,0.466316 z"
         sodipodi:ry="0.46631673"
         sodipodi:rx="0.46631673"
         sodipodi:cy="12.422775"
         sodipodi:cx="14.400958"
         id="path4069-4-7-2-2-3-6"
         style="fill:#e6e6e6;fill-opacity:1;stroke:#ffffff;stroke-width:0.69999999;stroke-miterlimit:4;stroke-opacity:1;stroke-dasharray:none;stroke-dashoffset:0;filter:url(#filter4091-4-5-0-8-1-4)"
         sodipodi:type="arc" />
    </g>
    <g
       transform="translate(-2.7430389,19.995123)"
       id="g4262-1-5-6">
      <path
         transform="matrix(0.2779532,0,0,0.25770248,9.1912278,9.3585476)"
         d="m 14.867275,12.422775 a 0.46631673,0.46631673 0 0 1 -0.466317,0.466317 0.46631673,0.46631673 0 0 1 -0.466317,-0.466317 0.46631673,0.46631673 0 0 1 0.466317,-0.466316 0.46631673,0.46631673 0 0 1 0.466317,0.466316 z"
         sodipodi:ry="0.46631673"
         sodipodi:rx="0.46631673"
         sodipodi:cy="12.422775"
         sodipodi:cx="14.400958"
         id="path4069-2-0-0-1"
         style="fill:#e6e6e6;fill-opacity:1;stroke:#ffffff;stroke-width:0.69999999;stroke-miterlimit:4;stroke-opacity:1;stroke-dasharray:none;stroke-dashoffset:0;filter:url(#filter4091-1-3-7-2)"
         sodipodi:type="arc" />
      <path
         transform="matrix(0.2779532,0,0,0.25770248,10.365249,9.3585476)"
         d="m 14.867275,12.422775 a 0.46631673,0.46631673 0 0 1 -0.466317,0.466317 0.46631673,0.46631673 0 0 1 -0.466317,-0.466317 0.46631673,0.46631673 0 0 1 0.466317,-0.466316 0.46631673,0.46631673 0 0 1 0.466317,0.466316 z"
         sodipodi:ry="0.46631673"
         sodipodi:rx="0.46631673"
         sodipodi:cy="12.422775"
         sodipodi:cx="14.400958"
         id="path4069-4-9-1-1-3"
         style="fill:#e6e6e6;fill-opacity:1;stroke:#ffffff;stroke-width:0.69999999;stroke-miterlimit:4;stroke-opacity:1;stroke-dasharray:none;stroke-dashoffset:0;filter:url(#filter4091-4-7-1-7-0)"
         sodipodi:type="arc" />
      <path
         transform="matrix(0.2779532,0,0,0.25770248,11.539271,9.3585476)"
         d="m 14.867275,12.422775 a 0.46631673,0.46631673 0 0 1 -0.466317,0.466317 0.46631673,0.46631673 0 0 1 -0.466317,-0.466317 0.46631673,0.46631673 0 0 1 0.466317,-0.466316 0.46631673,0.46631673 0 0 1 0.466317,0.466316 z"
         sodipodi:ry="0.46631673"
         sodipodi:rx="0.46631673"
         sodipodi:cy="12.422775"
         sodipodi:cx="14.400958"
         id="path4069-4-7-6-1-8-5"
         style="fill:#e6e6e6;fill-opacity:1;stroke:#ffffff;stroke-width:0.69999999;stroke-miterlimit:4;stroke-opacity:1;stroke-dasharray:none;stroke-dashoffset:0;filter:url(#filter4091-4-5-2-5-2-1)"
         sodipodi:type="arc" />
      <path
         transform="matrix(0.2779532,0,0,0.25770248,12.713291,9.3585476)"
         d="m 14.867275,12.422775 a 0.46631673,0.46631673 0 0 1 -0.466317,0.466317 0.46631673,0.46631673 0 0 1 -0.466317,-0.466317 0.46631673,0.46631673 0 0 1 0.466317,-0.466316 0.46631673,0.46631673 0 0 1 0.466317,0.466316 z"
         sodipodi:ry="0.46631673"
         sodipodi:rx="0.46631673"
         sodipodi:cy="12.422775"
         sodipodi:cx="14.400958"
         id="path4069-9-6-2-3-3"
         style="fill:#e6e6e6;fill-opacity:1;stroke:#ffffff;stroke-width:0.69999999;stroke-miterlimit:4;stroke-opacity:1;stroke-dasharray:none;stroke-dashoffset:0;filter:url(#filter4091-3-5-4-8-0)"
         sodipodi:type="arc" />
      <path
         transform="matrix(0.2779532,0,0,0.25770248,13.887313,9.3585476)"
         d="m 14.867275,12.422775 a 0.46631673,0.46631673 0 0 1 -0.466317,0.466317 0.46631673,0.46631673 0 0 1 -0.466317,-0.466317 0.46631673,0.46631673 0 0 1 0.466317,-0.466316 0.46631673,0.46631673 0 0 1 0.466317,0.466316 z"
         sodipodi:ry="0.46631673"
         sodipodi:rx="0.46631673"
         sodipodi:cy="12.422775"
         sodipodi:cx="14.400958"
         id="path4069-4-2-6-8-51-7"
         style="fill:#e6e6e6;fill-opacity:1;stroke:#ffffff;stroke-width:0.69999999;stroke-miterlimit:4;stroke-opacity:1;stroke-dasharray:none;stroke-dashoffset:0;filter:url(#filter4091-4-2-0-8-5-1)"
         sodipodi:type="arc" />
      <path
         transform="matrix(0.2779532,0,0,0.25770248,15.061334,9.3585476)"
         d="m 14.867275,12.422775 a 0.46631673,0.46631673 0 0 1 -0.466317,0.466317 0.46631673,0.46631673 0 0 1 -0.466317,-0.466317 0.46631673,0.46631673 0 0 1 0.466317,-0.466316 0.46631673,0.46631673 0 0 1 0.466317,0.466316 z"
         sodipodi:ry="0.46631673"
         sodipodi:rx="0.46631673"
         sodipodi:cy="12.422775"
         sodipodi:cx="14.400958"
         id="path4069-4-7-2-2-2-8-5"
         style="fill:#e6e6e6;fill-opacity:1;stroke:#ffffff;stroke-width:0.69999999;stroke-miterlimit:4;stroke-opacity:1;stroke-dasharray:none;stroke-dashoffset:0;filter:url(#filter4091-4-5-0-8-2-3-1)"
         sodipodi:type="arc" />
    </g>
    <g
       transform="translate(-2.7430389,21.476364)"
       id="g4262-1-8-3-9">
      <path
         transform="matrix(0.2779532,0,0,0.25770248,9.1912278,9.3585476)"
         d="m 14.867275,12.422775 a 0.46631673,0.46631673 0 0 1 -0.466317,0.466317 0.46631673,0.46631673 0 0 1 -0.466317,-0.466317 0.46631673,0.46631673 0 0 1 0.466317,-0.466316 0.46631673,0.46631673 0 0 1 0.466317,0.466316 z"
         sodipodi:ry="0.46631673"
         sodipodi:rx="0.46631673"
         sodipodi:cy="12.422775"
         sodipodi:cx="14.400958"
         id="path4069-2-0-2-1-8"
         style="fill:#e6e6e6;fill-opacity:1;stroke:#ffffff;stroke-width:0.69999999;stroke-miterlimit:4;stroke-opacity:1;stroke-dasharray:none;stroke-dashoffset:0;filter:url(#filter4091-1-3-6-1-1)"
         sodipodi:type="arc" />
      <path
         transform="matrix(0.2779532,0,0,0.25770248,10.365249,9.3585476)"
         d="m 14.867275,12.422775 a 0.46631673,0.46631673 0 0 1 -0.466317,0.466317 0.46631673,0.46631673 0 0 1 -0.466317,-0.466317 0.46631673,0.46631673 0 0 1 0.466317,-0.466316 0.46631673,0.46631673 0 0 1 0.466317,0.466316 z"
         sodipodi:ry="0.46631673"
         sodipodi:rx="0.46631673"
         sodipodi:cy="12.422775"
         sodipodi:cx="14.400958"
         id="path4069-4-9-1-2-9-6"
         style="fill:#e6e6e6;fill-opacity:1;stroke:#ffffff;stroke-width:0.69999999;stroke-miterlimit:4;stroke-opacity:1;stroke-dasharray:none;stroke-dashoffset:0;filter:url(#filter4091-4-7-1-1-6-9)"
         sodipodi:type="arc" />
      <path
         transform="matrix(0.2779532,0,0,0.25770248,11.539271,9.3585476)"
         d="m 14.867275,12.422775 a 0.46631673,0.46631673 0 0 1 -0.466317,0.466317 0.46631673,0.46631673 0 0 1 -0.466317,-0.466317 0.46631673,0.46631673 0 0 1 0.466317,-0.466316 0.46631673,0.46631673 0 0 1 0.466317,0.466316 z"
         sodipodi:ry="0.46631673"
         sodipodi:rx="0.46631673"
         sodipodi:cy="12.422775"
         sodipodi:cx="14.400958"
         id="path4069-4-7-6-1-2-9-4"
         style="fill:#e6e6e6;fill-opacity:1;stroke:#ffffff;stroke-width:0.69999999;stroke-miterlimit:4;stroke-opacity:1;stroke-dasharray:none;stroke-dashoffset:0;filter:url(#filter4091-4-5-2-5-1-8-1)"
         sodipodi:type="arc" />
      <path
         transform="matrix(0.2779532,0,0,0.25770248,12.713291,9.3585476)"
         d="m 14.867275,12.422775 a 0.46631673,0.46631673 0 0 1 -0.466317,0.466317 0.46631673,0.46631673 0 0 1 -0.466317,-0.466317 0.46631673,0.46631673 0 0 1 0.466317,-0.466316 0.46631673,0.46631673 0 0 1 0.466317,0.466316 z"
         sodipodi:ry="0.46631673"
         sodipodi:rx="0.46631673"
         sodipodi:cy="12.422775"
         sodipodi:cx="14.400958"
         id="path4069-9-6-2-9-0-1"
         style="fill:#e6e6e6;fill-opacity:1;stroke:#ffffff;stroke-width:0.69999999;stroke-miterlimit:4;stroke-opacity:1;stroke-dasharray:none;stroke-dashoffset:0;filter:url(#filter4091-3-5-4-6-6-6)"
         sodipodi:type="arc" />
      <path
         transform="matrix(0.2779532,0,0,0.25770248,13.887313,9.3585476)"
         d="m 14.867275,12.422775 a 0.46631673,0.46631673 0 0 1 -0.466317,0.466317 0.46631673,0.46631673 0 0 1 -0.466317,-0.466317 0.46631673,0.46631673 0 0 1 0.466317,-0.466316 0.46631673,0.46631673 0 0 1 0.466317,0.466316 z"
         sodipodi:ry="0.46631673"
         sodipodi:rx="0.46631673"
         sodipodi:cy="12.422775"
         sodipodi:cx="14.400958"
         id="path4069-4-2-6-8-5-6-9"
         style="fill:#e6e6e6;fill-opacity:1;stroke:#ffffff;stroke-width:0.69999999;stroke-miterlimit:4;stroke-opacity:1;stroke-dasharray:none;stroke-dashoffset:0;filter:url(#filter4091-4-2-0-8-8-0-9)"
         sodipodi:type="arc" />
      <path
         transform="matrix(0.2779532,0,0,0.25770248,15.061334,9.3585476)"
         d="m 14.867275,12.422775 a 0.46631673,0.46631673 0 0 1 -0.466317,0.466317 0.46631673,0.46631673 0 0 1 -0.466317,-0.466317 0.46631673,0.46631673 0 0 1 0.466317,-0.466316 0.46631673,0.46631673 0 0 1 0.466317,0.466316 z"
         sodipodi:ry="0.46631673"
         sodipodi:rx="0.46631673"
         sodipodi:cy="12.422775"
         sodipodi:cx="14.400958"
         id="path4069-4-7-2-2-2-7-3-9"
         style="fill:#e6e6e6;fill-opacity:1;stroke:#ffffff;stroke-width:0.69999999;stroke-miterlimit:4;stroke-opacity:1;stroke-dasharray:none;stroke-dashoffset:0;filter:url(#filter4091-4-5-0-8-2-6-8-1)"
         sodipodi:type="arc" />
    </g>
    <rect
       style="fill:#aa0000;fill-rule:evenodd;stroke:none;filter:url(#filter3970)"
       id="rect3009-1"
       width="24.440336"
       height="5.8298998"
       x="11.028337"
       y="-13.940183"
       transform="matrix(0.00866966,0.83294507,-0.8492419,0.0084877,13.341376,-2.8879784)" />
    <rect
       y="15.290698"
       x="7.5893593"
       height="5.8298998"
       width="26.693649"
       id="rect3009-1-4"
       style="fill:#ff0000;fill-rule:evenodd;stroke:none;filter:url(#filter3829)"
       transform="matrix(0.00761575,0.73239021,-0.47103196,0.00471183,31.264181,1.7882137)" />
    <rect
       style="fill:#aa0000;fill-rule:evenodd;stroke:none;filter:url(#filter3970)"
       id="rect3009-1-7"
       width="26.693649"
       height="5.8298998"
       x="0.00061739067"
       y="-5.8298998"
       transform="matrix(-0.30186939,0.26916877,-0.52770209,-0.56948588,29.131139,18.282133)" />
    <rect
       style="fill:#aa0000;fill-rule:evenodd;stroke:none;filter:url(#filter3970-7)"
       id="rect3009-1-7-1"
       width="26.693649"
       height="5.8298998"
       x="0.00061739067"
       y="-5.8298998"
       transform="matrix(0.30479407,0.26597928,-0.52162149,0.57484967,13.903238,21.605637)" />
    <rect
       y="15.290698"
       x="7.5893593"
       height="5.8298998"
       width="26.693649"
       id="rect3009-1-4-7"
       style="fill:#ff0000;fill-rule:evenodd;stroke:none;filter:url(#filter3829-3)"
       transform="matrix(-0.21668481,0.27663976,-0.39224676,-0.29567189,38.820478,23.17897)" />
    <rect
       y="15.290698"
       x="7.5893593"
       height="5.8298998"
       width="26.693649"
       id="rect3009-1-4-7-5"
       style="fill:#ff0000;fill-rule:evenodd;stroke:none;filter:url(#filter3829-3-4)"
       transform="matrix(0.24483371,0.25304572,-0.35890711,0.33393584,20.651549,12.072453)" />
    <path
       style="fill:none;stroke:#000000;stroke-width:1px;stroke-linecap:butt;stroke-linejoin:miter;stroke-opacity:1;filter:url(#filter3970)"
       d="m 24.312712,3.4841677 -4.615304,0.0162 c 0,0 0.03829,9.2484863 0.122669,19.9864193 l -5.508435,-5.445466 -3.045842,3.295775 10.69372,9.540091 10.284311,-9.619088 -2.45233,-3.135208 -5.914284,5.502911 c 0.08582,-9.579066 0.805826,-8.701233 0.435495,-20.1416343 z"
       id="path3797"
       inkscape:connector-curvature="0"
       sodipodi:nodetypes="cccccccccc"
       transform="matrix(0.84924273,-0.00840694,0.00857143,0.83294605,4.1360632,3.8598438)" />
  </g>
</svg>
