<?xml version="1.0" encoding="UTF-8" standalone="no"?>
<!-- Created with Inkscape (http://www.inkscape.org/) -->

<svg
   xmlns:dc="http://purl.org/dc/elements/1.1/"
   xmlns:cc="http://creativecommons.org/ns#"
   xmlns:rdf="http://www.w3.org/1999/02/22-rdf-syntax-ns#"
   xmlns:svg="http://www.w3.org/2000/svg"
   xmlns="http://www.w3.org/2000/svg"
   xmlns:xlink="http://www.w3.org/1999/xlink"
   xmlns:sodipodi="http://sodipodi.sourceforge.net/DTD/sodipodi-0.dtd"
   xmlns:inkscape="http://www.inkscape.org/namespaces/inkscape"
   width="32"
   height="32"
   id="svg2"
   version="1.1"
   inkscape:version="0.92.5 (2060ec1f9f, 2020-04-08)"
   sodipodi:docname="thermal_sim.svg">
  <defs
     id="defs4">
    <filter
       inkscape:collect="always"
       id="filter3790"
       x="-0.079282582"
       width="1.1585652"
       y="-0.10535019"
       height="1.2107004"
       color-interpolation-filters="sRGB">
      <feGaussianBlur
         inkscape:collect="always"
         stdDeviation="4.7030217"
         id="feGaussianBlur3792" />
    </filter>
    <radialGradient
       cx="21.34375"
       cy="14.125"
       r="11.96875"
       fx="21.34375"
       fy="14.125"
       id="radialGradient7432"
       xlink:href="#linearGradient3280"
       gradientUnits="userSpaceOnUse"
       gradientTransform="matrix(0.62663217,0,0,0.24560437,-1.0780629,14.776886)" />
    <linearGradient
       id="linearGradient3280">
      <stop
         id="stop3282"
         style="stop-color:black;stop-opacity:1"
         offset="0" />
      <stop
         id="stop3284"
         style="stop-color:black;stop-opacity:0"
         offset="1" />
    </linearGradient>
    <linearGradient
       x1="15"
       y1="23"
       x2="32"
       y2="23"
       id="linearGradient7417"
       xlink:href="#linearGradient4241"
       gradientUnits="userSpaceOnUse"
       gradientTransform="matrix(0.45351227,0,0,0.43489748,1.6683256,-0.98359359)" />
    <linearGradient
       id="linearGradient4241">
      <stop
         id="stop4243"
         style="stop-color:black;stop-opacity:0.27058825"
         offset="0" />
      <stop
         id="stop4249"
         style="stop-color:black;stop-opacity:0"
         offset="0.5" />
      <stop
         id="stop4245"
         style="stop-color:black;stop-opacity:0.27058825"
         offset="1" />
    </linearGradient>
    <linearGradient
       x1="15"
       y1="23"
       x2="32"
       y2="23"
       id="linearGradient7411"
       xlink:href="#linearGradient4291"
       gradientUnits="userSpaceOnUse"
       gradientTransform="matrix(0.44805339,0,0,0.38192868,1.7819511,0.64977281)" />
    <linearGradient
       id="linearGradient4291">
      <stop
         id="stop4293"
         style="stop-color:#8cab2a;stop-opacity:1"
         offset="0" />
      <stop
         id="stop4295"
         style="stop-color:#d7e866;stop-opacity:1"
         offset="0.37917796" />
      <stop
         id="stop4297"
         style="stop-color:#8cab2a;stop-opacity:1"
         offset="1" />
    </linearGradient>
    <linearGradient
       x1="18.804668"
       y1="5.8000488"
       x2="26.855783"
       y2="43.218105"
       id="linearGradient7413"
       xlink:href="#linearGradient4281"
       gradientUnits="userSpaceOnUse"
       gradientTransform="matrix(0.44805339,0,0,0.38192868,1.7819511,0.64977281)" />
    <linearGradient
       id="linearGradient4281">
      <stop
         id="stop4283"
         style="stop-color:#69aa28;stop-opacity:1"
         offset="0" />
      <stop
         id="stop4285"
         style="stop-color:#548820;stop-opacity:1"
         offset="1" />
    </linearGradient>
    <linearGradient
       x1="13.775995"
       y1="44.446079"
       x2="32.696804"
       y2="43.445534"
       id="linearGradient7405"
       xlink:href="#linearGradient4299"
       gradientUnits="userSpaceOnUse"
       gradientTransform="matrix(0.51239724,0,0,0.47522803,0.38302163,-10.833144)" />
    <linearGradient
       id="linearGradient4299">
      <stop
         id="stop4301"
         style="stop-color:#d7e866;stop-opacity:1"
         offset="0" />
      <stop
         id="stop4303"
         style="stop-color:#fbfbfb;stop-opacity:0"
         offset="1" />
    </linearGradient>
    <linearGradient
       x1="15"
       y1="23"
       x2="32"
       y2="23"
       id="linearGradient7408"
       xlink:href="#linearGradient4253"
       gradientUnits="userSpaceOnUse"
       gradientTransform="matrix(0.39130366,0,0,0.42673368,3.100966,0.02184371)" />
    <linearGradient
       id="linearGradient4253">
      <stop
         id="stop4255"
         style="stop-color:black;stop-opacity:0.3508772"
         offset="0" />
      <stop
         id="stop4257"
         style="stop-color:black;stop-opacity:0"
         offset="0.5" />
      <stop
         id="stop4259"
         style="stop-color:black;stop-opacity:0.10588235"
         offset="1" />
    </linearGradient>
    <linearGradient
       x1="22"
       y1="27.732166"
       x2="29.624184"
       y2="61.085434"
       id="linearGradient7401"
       xlink:href="#linearGradient4281"
       gradientUnits="userSpaceOnUse"
       gradientTransform="matrix(0.44805852,0,0,0.17404515,1.7817843,3.7787978)" />
  </defs>
  <sodipodi:namedview
     id="base"
     pagecolor="#ffffff"
     bordercolor="#666666"
     borderopacity="1.0"
     inkscape:pageopacity="0.0"
     inkscape:pageshadow="2"
     inkscape:zoom="5.0811988"
     inkscape:cx="-23.545226"
     inkscape:cy="30.052017"
     inkscape:document-units="px"
     inkscape:current-layer="layer1"
     showgrid="false"
     inkscape:window-width="1920"
     inkscape:window-height="1023"
     inkscape:window-x="1920"
     inkscape:window-y="33"
     inkscape:window-maximized="1" />
  <metadata
     id="metadata7">
    <rdf:RDF>
      <cc:Work
         rdf:about="">
        <dc:format>image/svg+xml</dc:format>
        <dc:type
           rdf:resource="http://purl.org/dc/dcmitype/StillImage" />
        <dc:title />
        <dc:creator>
          <cc:Agent>
            <dc:title>Roderick C.I. MacKenzie</dc:title>
          </cc:Agent>
        </dc:creator>
      </cc:Work>
    </rdf:RDF>
  </metadata>
  <g
     inkscape:label="Layer 1"
     inkscape:groupmode="layer"
     id="layer1"
     transform="translate(0,-1020.3622)">
    <g
       id="g2996"
       transform="matrix(0.16099491,0,0,0.16015595,-41.373086,949.39741)">
      <path
         inkscape:connector-curvature="0"
         id="path2996"
         d="m 256.17789,545.00906 85.879,-86.71277 112.97674,62.95014 -82.127,85.04522 z"
         style="fill:#a99b98;fill-opacity:1;stroke:#000000;stroke-width:1px;stroke-linecap:butt;stroke-linejoin:miter;stroke-opacity:1" />
      <path
         inkscape:connector-curvature="0"
         id="path3012"
         d="m 359.35775,467.88472 -27.09774,27.30619 -24.38797,22.72041 -16.67553,17.09242 26.68085,19.38531 16.0502,-7.0871 43.14795,27.72308 15.84176,-19.17687 23.34574,-20.21908 16.05021,-18.34309 1.25066,-8.54621 z"
         style="fill:#6a1c2a;fill-opacity:1;stroke:#000000;stroke-width:0;stroke-linecap:butt;stroke-linejoin:miter;stroke-miterlimit:4;stroke-dasharray:none;stroke-opacity:1;filter:url(#filter3790)" />
      <path
         inkscape:connector-curvature="0"
         id="path2998"
         d="m 279.73208,527.08286 47.52528,27.93152 12.08976,-12.08976 -49.19283,-28.34841 z"
         style="fill:#d4a474;fill-opacity:1;stroke:#000000;stroke-width:1px;stroke-linecap:butt;stroke-linejoin:miter;stroke-opacity:1" />
      <path
         inkscape:connector-curvature="0"
         id="path3000"
         d="m 302.24406,502.48645 49.19282,28.3484 11.25599,-12.50665 -48.35905,-27.09774 z"
         style="fill:#cfa56c;fill-opacity:1;stroke:#000000;stroke-width:1px;stroke-linecap:butt;stroke-linejoin:miter;stroke-opacity:1" />
      <path
         inkscape:connector-curvature="0"
         id="path3002"
         d="m 326.84047,482.05892 49.60971,25.84707 10.42221,-12.50665 -48.77594,-26.26396 z"
         style="fill:#dea977;fill-opacity:1;stroke:#000000;stroke-width:1px;stroke-linecap:butt;stroke-linejoin:miter;stroke-opacity:1" />
      <path
         inkscape:connector-curvature="0"
         id="path3004"
         d="m 391.45816,513.74243 43.77328,28.7653 10.00532,-10.8391 -43.35639,-27.09774 z"
         style="fill:#ba8b5f;fill-opacity:1;stroke:#000000;stroke-width:1px;stroke-linecap:butt;stroke-linejoin:miter;stroke-opacity:1" />
      <path
         inkscape:connector-curvature="0"
         id="path3006"
         d="m 378.11774,527.91664 44.19016,25.43019 -10.00532,12.92353 -44.19017,-26.68085 z"
         style="fill:#c09062;fill-opacity:1;stroke:#000000;stroke-width:1px;stroke-linecap:butt;stroke-linejoin:miter;stroke-opacity:1" />
      <path
         inkscape:connector-curvature="0"
         id="path3008"
         d="m 356.02265,551.67927 42.52261,25.84708 -10.83909,13.34043 -44.19017,-25.43019 z"
         style="fill:#b28359;fill-opacity:1;stroke:#000000;stroke-width:1px;stroke-linecap:butt;stroke-linejoin:miter;stroke-opacity:1" />
      <path
         sodipodi:nodetypes="ccccc"
         inkscape:connector-curvature="0"
         id="path3865"
         d="m 256.31519,544.74313 -0.0737,2.94785 117.02948,61.1678 -0.36848,-3.09524 z"
         style="fill:#b3b3b3;fill-opacity:1;stroke:#000000;stroke-width:1px;stroke-linecap:butt;stroke-linejoin:miter;stroke-opacity:1" />
      <path
         sodipodi:nodetypes="ccccc"
         inkscape:connector-curvature="0"
         id="path3867"
         d="m 373.49206,608.85878 81.50795,-85.04535 -0.1474,-2.50567 -81.95012,84.75057 z"
         style="fill:#cccccc;stroke:#000000;stroke-width:1px;stroke-linecap:butt;stroke-linejoin:miter;stroke-opacity:1" />
    </g>
    <g
       id="g1017"
       transform="matrix(1.289793,0,0,1.1230413,8.3468043,1029.52)">
      <path
         inkscape:connector-curvature="0"
         style="color:#000000;display:inline;overflow:visible;visibility:visible;opacity:0.5;fill:url(#radialGradient7432);fill-opacity:1;fill-rule:nonzero;stroke:none;stroke-width:1;marker:none"
         id="path7430"
         d="m 19.79661,18.246049 c -1.038695,3.20535 -4.905478,3.401421 -7.5,3.499714 -2.6531278,-0.133573 -6.3892078,-0.287061 -7.4999998,-3.499714 1.037911,-3.20595 4.905536,-3.401984 7.4999998,-3.500286 2.653053,0.133616 6.390018,0.286986 7.5,3.500286 z" />
      <path
         inkscape:connector-curvature="0"
         style="opacity:0.9;fill:#ffffff;fill-opacity:1;stroke:none"
         id="path8212"
         d="m 17.79661,17.245921 a 5.5,2.500158 0 0 1 -10.9999998,0 5.5,2.500158 0 1 1 10.9999998,0 z" />
      <path
         sodipodi:nodetypes="ccscccc"
         inkscape:connector-curvature="0"
         style="opacity:0.6;fill:url(#linearGradient7417);fill-opacity:1;stroke:#454545;stroke-width:0.96418482px;stroke-linecap:butt;stroke-linejoin:round;stroke-opacity:1"
         id="path2957"
         d="m 7.4225375,10.218814 -0.085307,7.280736 c -0.0085,1.056301 2.8100835,1.764121 4.9886335,1.764121 2.21905,0 4.997091,-0.746658 4.988635,-1.764121 L 17.194383,10.182859 C 17.162344,9.3595851 16.012465,8.9192759 12.541591,8.8968418 8.0123377,8.8676863 7.3640265,9.5798732 7.4225375,10.218814 Z" />
      <path
         inkscape:connector-curvature="0"
         style="fill:url(#linearGradient7411);fill-opacity:1;stroke:url(#linearGradient7413);stroke-width:0.96418476px;stroke-linecap:butt;stroke-linejoin:miter;stroke-opacity:1"
         id="path4265"
         d="m 8.2787262,10.718086 v 5.399799 c -0.0084,0.927648 2.2402658,1.145786 4.0324798,1.145786 1.792213,0 4.040834,-0.252245 4.03248,-1.145786 v -5.399799 c -0.03165,-0.723004 -2.240267,-0.9145073 -4.03248,-0.9145073 -1.792214,0 -4.0408358,0.1573957 -4.0324798,0.9145073 z" />
      <path
         inkscape:connector-curvature="0"
         style="fill:url(#linearGradient7405);fill-opacity:1;stroke:none;stroke-width:1.04929721"
         id="path4271"
         d="m 16.609468,9.8133919 a 4.3291744,1.0185457 0 0 1 -8.6583489,0 4.3291744,1.0185457 0 1 1 8.6583489,0 z" />
      <path
         sodipodi:nodetypes="cc"
         inkscape:connector-curvature="0"
         id="path964"
         d="m 12.127118,9.3813559 0.101695,4.2711861"
         style="fill:none;fill-rule:evenodd;stroke:#000000;stroke-width:0.5;stroke-linecap:round;stroke-linejoin:miter;stroke-miterlimit:4;stroke-dasharray:none;stroke-opacity:1" />
      <path
         sodipodi:nodetypes="ccsccsc"
         inkscape:connector-curvature="0"
         style="fill:url(#linearGradient7408);fill-opacity:1;stroke:none"
         id="path4251"
         d="m 8.2786332,10.827627 -0.482023,6.198983 c -0.0074,1.265125 2.9347768,1.714859 4.4999918,1.714859 1.565214,0 4.507288,-0.373515 4.499992,-1.714859 v -6.14607 c 0.0074,0.830853 -2.964672,0.917844 -4.529887,0.917844 -1.565214,0 -3.9953708,-0.101794 -3.9880738,-0.970757 z" />
      <path
         inkscape:connector-curvature="0"
         style="fill:none;stroke:url(#linearGradient7401);stroke-width:0.96399999;stroke-linecap:round;stroke-linejoin:miter;stroke-miterlimit:4;stroke-dasharray:none;stroke-opacity:1"
         id="path4417"
         d="m 8.2786332,10.827627 c -0.0084,0.422727 2.2402918,0.522136 4.0325268,0.522136 1.792233,0 4.04088,-0.115015 4.032526,-0.522136" />
      <g
         transform="translate(0.17977291,-1.1011354)"
         id="g1002">
        <path
           style="fill:#fed22b;fill-opacity:1;fill-rule:evenodd;stroke:#fed22b;stroke-width:0.30000001;stroke-linecap:butt;stroke-linejoin:miter;stroke-miterlimit:4;stroke-dasharray:none;stroke-opacity:1"
           d="M 13.169491,10.169492 14.18644,8.0847462 13.016948,4.9322034 11.949152,3.2033902 10.067796,5.8983055 9.457626,8.1864411 10.728813,10.220339 Z"
           id="path966"
           inkscape:connector-curvature="0"
           sodipodi:nodetypes="cccccccc" />
        <path
           style="fill:#f0b801;fill-opacity:1;fill-rule:evenodd;stroke:#f0b801;stroke-width:0.40000001;stroke-linecap:butt;stroke-linejoin:miter;stroke-miterlimit:4;stroke-dasharray:none;stroke-opacity:1"
           d="M 11.580508,10.067797 10.817796,8.0847462 C 10.832116,6.2694883 11.411178,5.60142 12.34322,4.0169496 L 11.682203,3.3559326 10.563559,5.2372885 9.749999,7.067797 v 1.2711865 c 0,0 0.483054,0.6228813 0.584746,1.2838981 0.305085,0.305085 0.381356,0.2923737 0.381356,0.2923737 z"
           id="path968"
           inkscape:connector-curvature="0"
           sodipodi:nodetypes="cccccccccc" />
        <path
           style="fill:none;fill-rule:evenodd;stroke:#000000;stroke-width:0.60000002;stroke-linecap:butt;stroke-linejoin:miter;stroke-miterlimit:4;stroke-dasharray:none;stroke-opacity:1"
           d="M 13.016948,4.9322034 11.796609,3.0508475 c -0.913712,1.3323077 -2.129107,2.3126512 -2.288135,4.5254237 0.40678,1.3478778 0.813559,2.2452871 1.220339,2.6440678 h 2.59322 c 0.412049,-0.8305083 1.036406,-1.6610168 0.81356,-2.4915254 l -0.508475,-1.779661"
           id="path962"
           inkscape:connector-curvature="0"
           sodipodi:nodetypes="ccccccc" />
      </g>
      <path
         sodipodi:nodetypes="csc"
         inkscape:connector-curvature="0"
         style="opacity:0.6;fill:none;stroke:#585858;stroke-width:0.96418482px;stroke-linecap:round;stroke-linejoin:round;stroke-opacity:1"
         id="path4440"
         d="m 17.230338,9.9671318 c -0.03223,1.0236432 -1.218,1.5684062 -4.717992,1.5684062 -3.5000083,0 -5.0983155,-0.244791 -5.0898085,-1.316724" />
    </g>
  </g>
</svg>
